<?xml version="1.0" encoding="utf-8"?>
<!-- Generator: Adobe Illustrator 26.0.1, SVG Export Plug-In . SVG Version: 6.00 Build 0)  -->
<svg version="1.1" id="Layer_1" xmlns="http://www.w3.org/2000/svg" xmlns:xlink="http://www.w3.org/1999/xlink" x="0px" y="0px"
	 viewBox="0 0 784.6 134.7" style="enable-background:new 0 0 784.6 134.7;" xml:space="preserve">
<style type="text/css">
	.st0{fill:#343D89;}
	.st1{fill:#3B3C3C;}
</style>
<g>
	<path class="st0" d="M116.7,113.1c-17.8,19.5-47.2,27.5-74,16.9C16.5,119.7-1.7,93.8,0.1,63.3c1.7-29.4,22-53.5,49.6-61
		c26.8-7.2,52.5,3.1,66.3,18.7c-0.1,0.2-0.3,0.2-0.4,0.2c-0.5,0-1,0-1.4,0c-22.3,0-44.5,0-66.8,0.1c-1.9,0-1.8-0.2-1.8,1.7
		c0,6.6,0,13.3,0,19.9c0,0.3,0,0.6,0,1c0,0.4,0.2,0.7,0.6,0.7c0.4,0,0.7,0,1.1,0c6.7,0,13.4,0.1,20.1,0c16.1-0.2,32.1,0,48.2-0.1
		c4.6,0,9.2,0,13.8-0.1c1,0,1.4,0.3,1.7,1.2c1.1,3.2,1.9,6.5,2.5,10c-0.7,0.1-1.4,0.1-2,0.2c-0.2,0-0.4,0-0.6,0
		c-25.2,0-50.3,0.1-75.5,0.1c-12.5,0-25.1,0-37.6,0.1c-1.8,0-1.9,0-1.7,1.7c0.2,2.5,0.1,4.9,0.1,7.4c0.1,4.1,0.1,8.2,0.2,12.4
		c0,1.5,0,1.5,1.5,1.5c7.7-0.1,15.4-0.1,23.1-0.2c1,0,2-0.1,3-0.1c0.8,0,1,0.2,1,1c0,1.6-0.1,3.2-0.1,4.8
		c-0.1,8.5-0.1,16.9-0.2,25.4c0,0.7-0.1,1.4-0.1,2.1c-0.1,1.3,0,1.3,1.3,1.3c2.1,0,4.2,0,6.3,0c5,0,10-0.1,14.9-0.1
		c1.5,0,1.5,0,1.5-1.5c0-10,0-20,0-30c0-0.3,0-0.6,0-1c0-1.3,0-1.4,1.5-1.4c2.7,0,5.5,0,8.2,0c17.8,0,35.6,0.1,53.5,0.1
		c0.5,0,1.1-0.1,1.6,0.2c-0.5,3.4-1.5,6.7-2.6,9.9c-0.2,0.5-0.5,0.8-1.1,0.7c-0.3,0-0.5,0-0.8,0c-15.7,0-31.4,0.1-47,0.1
		c-2.2,0-2-0.3-1.9,2c0,6.4,0.1,12.8,0.1,19.3c0,1.8-0.2,1.7,1.6,1.7c10.9,0,21.8,0,32.8-0.1C115.2,113.1,115.8,113.1,116.7,113.1z"
		/>
	<path class="st1" d="M784.6,54.6c0,9.9,0,19.9,0,29.8c-0.1,11.6-5.2,20.4-14.9,26.6c-4.4,2.8-9.2,4.1-14.4,4.3
		c-1.3,0-1.3,0-1.3-1.2c0-3.3,0-6.6,0-9.9c0-1.3,0-1.3,1.3-1.4c7.6-0.7,12.7-4.8,15.7-11.7c1-2.4,1.2-5,1.2-7.6c0-0.8-0.3-1-1.1-1
		c-3.9,0-7.7,0-11.6,0c-15,0-28-10.9-30.4-25.7c-0.3-1.8-0.4-3.7-0.4-5.6c0-9.6,0-19.1,0-28.7c0-0.2,0-0.3,0-0.5
		c0-1.2,0-1.2,1.1-1.2c3.5,0,7,0,10.4,0c0.9,0,1.1,0.4,1,1.2c0,2,0,4.1,0,6.1c0,7.8,0,15.6,0,23.4c0,4.9,1.6,9.1,4.9,12.7
		c3.1,3.3,6.8,5.3,11.3,5.7c4.5,0.4,9.1,0.1,13.6,0.2c0.7,0,0.9-0.3,0.9-1c0-0.4,0-0.7,0-1.1c0-15.1,0-30.2,0-45.3
		c0-2-0.3-1.8,1.8-1.8c3.2,0,6.3,0,9.5,0c1.3,0,1.3,0,1.3,1.3C784.6,33,784.6,43.8,784.6,54.6z"/>
	<path class="st1" d="M625.3,20.9c6.4,0,12.8,0,19.3,0c0.3,0,0.6,0,1,0c1.1,0,1.2,0,1.2,1.1c0,1,0,1.9,0,2.9c0,2.3,0,4.6,0,6.9
		c0,1.8,0,1.6-1.7,1.6c-12.1,0-24.2,0-36.3,0c-0.7,0-1.5,0-2.2,0c-3.2,0.2-5.6,2.7-5.6,5.9c0,3.2,2.5,5.8,5.8,5.8
		c5.8,0.1,11.6,0,17.3,0c2.8,0,5.7-0.1,8.5,0.1c8.7,0.5,16.8,8.6,16.7,18c0,8.5-5.1,15.7-13,18.1c-1.7,0.5-3.4,0.8-5.2,0.8
		c-12.9,0-25.8,0-38.7,0c-0.2,0-0.3,0-0.5,0c-0.8,0.1-1.1-0.2-1.1-1.1c0-2.6,0-5.2,0-7.9c0-1.2-0.5-2.6,0.3-3.4
		c0.7-0.7,2.1-0.2,3.3-0.2c11.8,0,23.7,0,35.5,0c2,0,3.8-0.4,5.2-2c1.7-1.8,2.1-4,1.2-6.2c-0.9-2.2-2.7-3.6-5.2-3.7
		c-2.6-0.1-5.2,0-7.9,0c-5.4,0-10.8,0-16.2,0c-4.7,0-8.8-1.5-12.3-4.6c-9.1-8-8.4-22,1.5-29c3.1-2.2,6.5-3.3,10.2-3.3
		C612.7,20.9,619,20.9,625.3,20.9z"/>
	<path class="st0" d="M256.3,57.9c2.6,5.8,6.6,9.6,12.5,11.2c1.8,0.5,3.6,0.6,5.4,0.6c5.5,0,11,0,16.5,0c0.4,0,0.8,0,1.1,0
		c0.6,0,0.9,0.2,0.8,0.8c0,1.4,0,2.8,0,4.2c0,2.1,0,4.3,0,6.4c0,0.8-0.2,1.1-1.1,1.1c-6.6,0-13.3,0.2-19.9-0.1
		c-16.3-0.7-27.5-13.9-29-26.9c-1.7-15.3,7.8-29.7,22.7-33.4c19.7-4.9,35.4,8.8,38,24.3c0.6,3.6,0.3,7.3,0.4,10.9
		c0,0.6-0.2,0.9-0.8,0.9c-0.4,0-0.9,0-1.3,0c-14.7,0-29.3,0-44,0C257.4,57.9,257,57.9,256.3,57.9z M290,45.2
		c-1.5-6.4-9.4-11.9-17-11.8c-7.5,0.1-15.3,5.7-16.5,11.8C267.7,45.2,278.9,45.2,290,45.2z"/>
	<path class="st1" d="M461,57.9c0,0.9,0.4,1.4,0.7,2c3.1,5.5,7.7,8.9,14.1,9.6c1.2,0.1,2.3,0.2,3.5,0.2c5.5,0,10.9,0,16.4,0
		c1.6,0,1.4-0.1,1.5,1.5c0,3.3,0,6.5,0,9.8c0,1.2,0,1.2-1.3,1.2c-6.5,0-13,0.2-19.4,0c-11.2-0.5-19.7-5.8-25.3-15.4
		c-10.2-17.6-0.8-39.9,18.9-44.9c19-4.8,33.8,7.9,37.4,21.9c0.5,1.8,0.8,3.7,0.9,5.5c0.1,2.6,0,5.1,0.1,7.7c0,0.7-0.2,1-0.9,0.9
		c-0.4,0-0.7,0-1.1,0c-14.5,0-29,0-43.5,0C462.2,57.9,461.6,57.9,461,57.9z M460.9,45.2c6.1,0.3,32.3,0.2,33.5-0.2
		c-1.9-6.5-9.4-11.7-16.9-11.6C470,33.5,462.6,38.8,460.9,45.2z"/>
	<path class="st1" d="M579,64.9c0,5.3,0,10.6,0,15.9c0,1.4,0,1.4-1.4,1.4c-10.1,0-20.1,0.2-30.2-0.1c-10.9-0.3-19.4-5.3-25.2-14.5
		c-10.9-17.5-1.9-40.8,18.7-45.9c19.8-4.8,34.6,9.1,37.5,23.3C578.8,47,579,49,579,51C579,55.6,579,60.3,579,64.9z M566.4,59.3
		c0-2.3,0-4.6,0-6.9c0-1.1,0-2.3-0.2-3.4c-1-8.4-8.6-15.5-17.6-15.7c-12.1-0.3-22.3,12.1-17.1,24.9c3,7.4,9,11.2,17.1,11.4
		c5.5,0.1,11,0,16.5,0c1.2,0,1.2,0,1.3-1.2C566.5,65.4,566.4,62.3,566.4,59.3z"/>
	<path class="st0" d="M376.5,6.1c1.4,0.7,2.7,1.3,4,2c2.4,1.2,4.8,2.4,7.2,3.6c1,0.5,1.3,1,1.3,2.1c-0.1,1.8,0,3.6,0,5.5
		c0,2-0.1,1.8,1.7,1.8c5.6,0,11.2,0,16.9,0c14.6,0,27.6,11.1,29.8,25.6c0.3,1.8,0.4,3.6,0.4,5.4c0,9.4,0,18.8,0,28.2
		c0,0.3,0,0.6,0,1c0.1,0.8-0.3,1.1-1.1,1.1c-3.4,0-6.9,0-10.3,0c-1.2,0-1.2,0-1.2-1.3c0-6,0-12,0-18c0-3.9,0-7.8,0-11.7
		c0-8.7-6.7-16.3-15.3-17.5c-1.1-0.2-2.2-0.2-3.4-0.3c-5.3,0-10.6,0-15.9,0c-1.7,0-1.6-0.2-1.6,1.7c0,15,0,30,0,44.9
		c0,2.5,0.2,2.1-2.2,2.1c-3.1,0-6.1,0-9.2,0c-1.2,0-1.2,0-1.2-1.3c0-0.3,0-0.5,0-0.8c0-24.1,0-48.1,0-72.2
		C376.4,7.4,376.3,6.9,376.5,6.1z"/>
	<path class="st0" d="M201.1,5.7c10,0,20,0,30,0c0.4,0,0.9,0,1.3,0c0.6,0,0.9,0.2,0.9,0.9c0,3.6,0,7.3,0,10.9c0,0.9-0.5,0.9-1.1,0.9
		c-3.7,0-7.4,0-11.1,0c-4.2,0-8.5,0-12.7,0c-1.1,0-1.2,0-1.2,1.1c0,2,0,4.1,0,6.1c0,18.2,0,36.5,0,54.7c0,2.1,0.2,1.9-1.9,1.9
		c-3.2,0-6.3,0-9.5,0c-1.2,0-1.2,0-1.2-1.1c0-0.4,0-0.7,0-1.1c0-19.9,0-39.8,0-59.7c0-2.2,0.3-1.9-2-1.9c-7.3,0-14.6,0-21.8,0
		c-0.3,0-0.6,0-1,0c-1.2,0-1.3,0-1.3-1.2c0-1.8,0-3.6,0-5.5c0-1.6,0-3.2,0-4.8c0-1.1,0-1.1,1.2-1.2c0.7,0,1.4,0,2.1,0
		C181.7,5.7,191.4,5.7,201.1,5.7z"/>
	<path class="st0" d="M344,20.8c7.7,0,14.3,2.7,20.1,7.7c0.8,0.7,1.6,1.5,2.5,2.3c0.4,0.4,0.4,0.8,0,1.2c-2.8,2.4-5.5,4.7-8.2,7.2
		c-0.5,0.5-0.9,0.3-1.3-0.1c-2-2-4.2-3.6-6.9-4.5c-10.7-3.9-22.4,3.2-24,14.5c-1.5,10.6,6.3,18.8,14.2,20.3
		c6.2,1.1,11.5-0.4,16.1-4.7c1.3-1.2,1.3-1.2,2.6,0c2.4,2.1,4.8,4.2,7.2,6.3c0.9,0.8,0.9,0.8,0.1,1.6c-7.1,7.1-15.6,10.4-25.7,9.5
		c-12-1.1-22.9-10.2-26.1-21.8c-5.2-18.2,6.4-34.5,21.9-38.5c1.3-0.3,2.6-0.6,3.9-0.7C341.5,20.9,342.8,20.9,344,20.8z"/>
	<path class="st1" d="M719.3,7.4c-0.5,1.3-1,2.7-1.5,4c-0.8,2.2-1.7,4.4-2.5,6.6c-0.2,0.7-0.5,1-1.4,0.8c-10-2.1-19.1,5.5-20.7,14.1
		c0,0.1,0,0.2,0,0.4c0.5,0.3,1.1,0.1,1.7,0.1c5.4,0,10.8,0,16.2,0c1.3,0,1.3,0,1.3,1.3c0,3.2,0,6.3,0,9.5c0,1.3,0,1.3-1.4,1.3
		c-5.5,0-10.9,0-16.4,0c-0.3,0-0.6,0-1,0c-0.7,0-1,0.2-1,0.9c0,0.4,0,0.7,0,1.1c0,11,0,21.9,0.1,32.9c0,2,0.2,1.8-1.8,1.8
		c-3.1,0-6.2,0-9.3,0c-1.5,0-1.5,0.1-1.5-1.5c0-10.6,0-21.2,0-31.8c0-4.5-0.1-9,0.1-13.5c0.3-10.2,5-18.2,13.2-24.1
		c5.3-3.8,11.3-5.5,17.8-5.5C714.3,5.9,717.4,6.5,719.3,7.4z"/>
	<path class="st1" d="M658.5,63.8c0-5.7,0-11.3,0-17c0-1.4,0-1.4,1.4-1.4c3.3,0,6.6,0,10,0c1.2,0,1.2,0,1.2,1.2c0,4.3,0,8.6,0,12.8
		c0,6.9,0,13.8,0,20.7c0,0.3,0,0.6,0,1c0.1,0.8-0.2,1.1-1.1,1.1c-2.8,0-5.6,0-8.3,0c-0.8,0-1.6,0-2.4,0c-0.5,0-0.8-0.2-0.8-0.8
		c0-0.4,0-0.7,0-1.1C658.5,74.8,658.5,69.3,658.5,63.8z"/>
	<path class="st1" d="M572.6,115.1c0.5,0.2,0.8,0.4,1.1,0.6c1.8,0.9,2.7,2.4,2.7,4.4c0,2-0.9,3.6-2.6,4.6c-1.2,0.7-2.5,1-3.8,1.1
		c-3.3,0.1-6.6,0-9.9,0.1c-0.8,0-0.9-0.4-0.9-1c0-0.8,0-1.6,0-2.4c0-5.3,0-10.7,0-16c0-1.3,0-1.3,1.3-1.3c2.8,0,5.6,0,8.3,0
		c1.3,0,2.6,0.3,3.9,0.9c3.4,1.8,3.1,6.5,1,8.2C573.3,114.5,573,114.8,572.6,115.1z M566,122.6c1.7,0,3.1,0.1,4.5-0.3
		c1.7-0.5,2.5-1.9,2-3.4c-0.4-1.1-1.3-1.5-2.3-1.7c-1.7-0.4-3.4-0.2-5.1-0.2c-2.3,0-2.3,0-2.3,2.3c0,1.1-0.4,2.4,0.2,3.1
		C563.7,123.2,565.1,122.5,566,122.6z M566.2,113.9c0.8,0,1.8,0.1,2.8-0.1c1.6-0.3,2.5-1.3,2.4-2.7c0-1.3-1.1-2.4-2.7-2.5
		c-1.8-0.1-3.5,0-5.3,0c-0.4,0-0.7,0.1-0.7,0.6c0,1.3,0,2.7,0,4c0,0.6,0.3,0.7,0.8,0.7C564.4,113.9,565.2,113.9,566.2,113.9z"/>
	<path class="st1" d="M655.1,111.7c0,2.1,0,4,0,5.8c0,2.5,0,4.9,0,7.4c0,0.7-0.2,1.1-1,1c-0.8-0.1-1.7,0.1-2.5-0.1
		c-0.2-0.4-0.2-0.9-0.2-1.3c0-6,0-12,0-18c0-1.4,0-1.3,1.4-1.4c1.5-0.2,2.4,0.4,3.3,1.6c2.8,3.8,5.7,7.5,8.6,11.2
		c0.2,0.3,0.5,0.5,0.8,0.9c0.3-0.5,0.2-0.9,0.2-1.3c0-3.7,0-7.4,0-11.1c0-1.3,0-1.3,1.3-1.3c2.4-0.1,2.4-0.1,2.4,2.3
		c0,5.6,0,11.2,0,16.8c0,1.7,0.1,1.5-1.5,1.6c-1.1,0.1-1.9-0.3-2.5-1.2c-2.9-3.8-5.9-7.6-8.8-11.4
		C656.2,112.8,655.9,112.2,655.1,111.7z"/>
	<path class="st1" d="M481.2,111.8c-0.2,0.6-0.1,1.2-0.1,1.7c0,3.7,0,7.5,0,11.2c0,1.1,0,1.2-1.1,1.2c-3,0-2.4,0.4-2.5-2.4
		c0-5.6,0-11.2,0-16.9c0-1.4,0-1.3,1.3-1.5c1.5-0.2,2.4,0.4,3.3,1.6c2.7,3.7,5.5,7.2,8.3,10.8c0.3,0.4,0.6,1,1.1,1.3
		c0.4-0.4,0.2-0.8,0.2-1.2c0-3.7,0-7.5,0-11.2c0-1.2,0-1.2,1.1-1.2c2.5-0.1,2.5-0.1,2.5,2.4c0,5.5,0,11,0,16.5c0,0.4,0,0.7,0,1.1
		c0,0.2,0,0.4-0.2,0.6c-0.6,0.4-2.9,0-3.4-0.7c-1.4-1.8-2.8-3.6-4.2-5.5c-1.8-2.3-3.6-4.7-5.4-7C481.9,112.4,481.8,112,481.2,111.8z
		"/>
	<path class="st1" d="M383.9,118.1c1.8,2.6,3.6,5.1,5.5,7.8c-1.5,0-2.7,0-3.8,0c-0.6,0-0.8-0.4-1.1-0.8c-1.3-1.8-2.6-3.6-3.9-5.5
		c-0.5-0.7-1-1-1.9-0.9c-0.8,0.1-1.6,0-2.4,0c-0.7,0-0.9,0.3-0.9,1c0,1.7,0,3.3,0,5c0,1.3,0,1.3-1.2,1.3c-3,0-2.4,0.4-2.5-2.4
		c0-5.6,0-11.2,0-16.8c0-1.4,0-1.5,1.5-1.5c2.6,0,5.2,0,7.9,0c1.2,0,2.3,0.2,3.5,0.6c2.5,0.9,3.9,2.8,4.1,5.4c0.2,2.8-0.9,5-3.4,6.3
		C384.8,117.7,384.5,117.9,383.9,118.1z M378.6,115.4C378.6,115.4,378.6,115.3,378.6,115.4c1,0,2,0,3-0.1c1.8-0.2,3.1-1.4,3.2-3
		c0.2-2.1-1.1-3.6-3.3-3.7c-1.8-0.1-3.5,0-5.3,0c-0.6,0-0.9,0.2-0.9,0.8c0,1.8,0,3.5,0,5.3c0,0.6,0.3,0.7,0.8,0.7
		C377,115.4,377.8,115.4,378.6,115.4z"/>
	<path class="st1" d="M601.3,118.2c1.8,2.6,3.6,5,5.5,7.7c-1.5,0-2.8,0-4,0c-0.5,0-0.7-0.4-0.9-0.8c-1.3-1.8-2.6-3.6-3.9-5.5
		c-0.4-0.6-0.9-1-1.7-0.9c-0.7,0.1-1.4,0-2.1,0c-1.3,0-1.3,0-1.3,1.4c0,1.6,0,3.2,0,4.8c0,0.7-0.2,1-1,1c-2.7,0.1-2.7,0.1-2.7-2.6
		c0-5.6,0-11.2,0-16.8c0-1.2,0-1.3,1.2-1.3c2.8,0,5.6,0,8.3,0c0.9,0,1.8,0.1,2.7,0.4c2.9,0.9,4.5,2.8,4.7,5.8c0.2,2.8-1.2,5-3.8,6.3
		C602.1,117.8,601.8,117.9,601.3,118.2z M596.2,115.4C596.2,115.4,596.2,115.3,596.2,115.4c1,0,1.9,0,2.9-0.1
		c1.9-0.2,3.2-1.6,3.2-3.4c0-1.8-1.2-3.2-3.2-3.3c-1.8-0.1-3.6,0-5.5,0c-0.6,0-0.8,0.2-0.8,0.8c0,1.8,0,3.5,0,5.3
		c0,0.6,0.2,0.7,0.8,0.7C594.5,115.4,595.4,115.4,596.2,115.4z"/>
	<path class="st1" d="M683.5,115.6c0-3.1,0-6.2,0-9.3c0-0.6,0-1.1,0.9-1.1c2.9,0.1,5.8-0.2,8.7,0.1c5.1,0.6,8.9,4.6,9.1,9.6
		c0.3,5.3-3.1,9.6-8.3,10.7c-2,0.4-3.9,0.3-5.9,0.3c-1.2,0-2.4,0-3.5,0c-0.8,0-1-0.3-1-1C683.5,121.8,683.5,118.7,683.5,115.6z
		 M687.2,115.5c0,2,0,4.1,0,6.1c0,0.7,0.2,1,0.9,1c1.4-0.1,2.9,0.1,4.3-0.1c3.6-0.5,6.1-3.5,5.9-7.1c-0.2-3.8-2.9-6.6-6.6-6.7
		c-1.1,0-2.2,0-3.4,0c-1.1,0-1.2,0-1.2,1.1C687.2,111.6,687.2,113.6,687.2,115.5z"/>
	<path class="st1" d="M527.2,107.8c-0.6,0.7-1.1,1.3-1.7,2c-0.4,0.5-0.8,0.5-1.3,0.1c-0.9-0.8-2-1.2-3.2-1.5
		c-3.3-0.8-6.3,0.6-7.7,3.7c-1.2,2.6-1.1,5.2,0.4,7.7c2.5,4,7.6,3.6,10.2,1.9c0.3-0.2,0.5-0.4,0.5-0.8c0-0.1,0-0.2,0-0.3
		c0.2-3,0.2-3-2.8-3c-0.1,0-0.2,0-0.3,0c-2.4,0-2.3,0-2.2-2.4c0-0.5,0.1-0.8,0.7-0.8c2.5,0,4.9,0,7.4,0c0.6,0,0.7,0.3,0.7,0.8
		c0,2.5,0,4.9,0,7.4c0,0.5-0.2,0.8-0.6,1.1c-3.5,3-9.4,3.6-13.4,1.4c-3.9-2.1-6-6.6-5.2-11.2c0.8-4.6,4.2-8.1,8.6-8.8
		c3.1-0.5,6-0.1,8.6,1.6C526.4,106.9,526.8,107.2,527.2,107.8z"/>
	<path class="st1" d="M343.2,115.6c0-3.1,0-6.2,0-9.3c0-0.8,0.2-1.1,1.1-1.1c4.4,0,8.9,0,13.3,0c0.8,0,1,0.3,1,1
		c-0.1,2.9,0.3,2.3-2.2,2.3c-2.8,0-5.6,0-8.4,0c-0.9,0-1.1,0.3-1.1,1.1c0.1,1.1,0,2.1,0,3.2c0,0.7,0.3,0.9,0.9,0.9c2.7,0,5.4,0,8,0
		c1.3,0,1.3,0,1.3,1.3c0,2.2,0.3,2-1.9,2c-2.3,0-4.6,0-6.9,0c-1.6,0-1.4-0.1-1.4,1.5c0,0.8,0,1.6,0,2.4c0,1.6-0.1,1.5,1.6,1.5
		c2.8,0,5.6,0,8.4,0c0.3,0,0.5,0,0.8,0c0.7-0.1,1,0.2,1.1,1c0.1,2.4,0.1,2.4-2.3,2.4c-4,0-8,0-12,0c-1.1,0-1.2,0-1.2-1.1
		C343.2,121.7,343.2,118.7,343.2,115.6z"/>
	<path class="st1" d="M287.6,115.6c0-3,0-6.1,0-9.1c0-1.2,0-1.2,1.3-1.2c4.3,0,8.6,0,12.8,0c1.2,0,1.3,0,1.3,1.2
		c0,2.5,0.3,2.1-2.1,2.2c-2.7,0-5.5,0-8.2,0c-1.4,0-1.4,0-1.4,1.4c0,0.7,0,1.5,0,2.2c0,1.7-0.1,1.5,1.6,1.5c2.5,0,4.9,0,7.4,0
		c1.3,0,1.3,0,1.3,1.2c0,2.5,0.3,2.1-2.1,2.1c-2.4,0-4.7,0-7.1,0c-0.8,0-1.2,0.2-1.1,1.1c0.1,1.1,0.1,2.2,0,3.4c0,0.8,0.3,1,1,1
		c2.9,0,5.9,0,8.8,0c0.4,0,0.8,0,1.1,0c0.7,0,0.8,0.3,0.8,0.9c0.2,2.5,0.2,2.5-2.4,2.5c-3.9,0-7.8,0-11.7,0c-1.4,0-1.4,0-1.4-1.4
		C287.6,121.6,287.6,118.6,287.6,115.6z"/>
	<path class="st1" d="M215.8,125.9c-1,0-2.1,0-3.1,0c-0.6,0-0.7-0.4-0.9-0.8c-0.5-1.1-0.9-2.2-1.4-3.3c-0.3-0.7-0.7-1-1.4-1
		c-2.5,0-5,0-7.5,0c-0.8,0-1.3,0.2-1.6,1c-0.4,1-0.9,2.1-1.3,3.1c-0.2,0.6-0.6,0.9-1.3,0.9c-0.9-0.1-1.8,0-2.7,0
		c-0.1-0.6,0.2-1,0.3-1.4c2.7-6.1,5.4-12.2,8-18.4c0.4-0.9,0.8-1.2,1.8-1.2c2.2,0,2.2,0,3,1.9c2.5,5.8,5,11.6,7.6,17.3
		C215.6,124.7,215.9,125.2,215.8,125.9z M208.6,117.6c-1.2-2.7-2.3-5.2-3.5-8c-1.2,2.8-2.3,5.4-3.4,8
		C204.1,117.6,206.2,117.6,208.6,117.6z"/>
	<path class="st1" d="M638.9,125.9c-1.2,0-2.4,0.3-3.4-0.1c-1.1-0.4-1.1-1.8-1.5-2.8c-1.1-2.4-0.4-2-3.1-2c-2.1,0-4.2,0-6.3,0
		c-0.9,0-1.4,0.2-1.7,1.1c-0.4,1.1-0.9,2.1-1.3,3.1c-0.2,0.6-0.6,0.8-1.2,0.8c-0.9,0-1.8,0-2.7,0c-0.2-0.6,0.1-0.9,0.3-1.3
		c2.7-6.1,5.4-12.2,8-18.4c0.4-0.9,0.9-1.3,1.9-1.3c2.1,0.1,2.1,0,3,2c2.5,5.8,5,11.6,7.6,17.3C638.7,124.8,639,125.2,638.9,125.9z
		 M631.7,117.5c-1.1-2.7-2.2-5.2-3.4-8c-1.2,2.9-2.3,5.3-3.4,8C627.3,117.5,629.4,117.5,631.7,117.5z"/>
	<path class="st1" d="M421.5,125.8c-0.1,0-0.1,0.1-0.1,0.1c-1.1,0.1-2.4,0.4-3.3-0.1c-0.9-0.4-1-1.8-1.4-2.7
		c-1.1-2.4-0.4-2.1-3.2-2.1c-2.1,0-4.2,0-6.3,0c-0.8,0-1.3,0.3-1.5,1c-0.4,1.1-0.9,2.2-1.4,3.2c-0.2,0.5-0.5,0.7-1.1,0.7
		c-0.9,0-1.8,0-2.7,0c-0.3-0.5,0-0.9,0.2-1.3c2.7-6.2,5.4-12.3,8-18.5c0.4-0.9,0.9-1.2,1.8-1.1c2.6,0.1,1.9-0.4,3,1.9
		c2.5,5.7,5,11.4,7.5,17.2C421.2,124.7,421.6,125.1,421.5,125.8z M414.1,117.6c-0.3-1.6-2.6-6.8-3.4-7.6c-1.1,2.5-2.1,5-3.2,7.6
		C409.8,117.6,411.9,117.6,414.1,117.6z"/>
	<path class="st1" d="M713.8,122.8c0.1-0.2,0.2-0.4,0.3-0.5c0.6-0.6,0.9-1.6,1.7-1.8c0.7-0.2,1.3,0.8,2,1.1c1.6,0.9,3.3,1.4,5.2,1.2
		c0.7-0.1,1.4-0.2,2-0.7c1.4-1,1.4-2.8-0.1-3.7c-1-0.6-2.1-0.8-3.1-1.2c-1.1-0.3-2.2-0.5-3.2-0.9c-3-1.1-4.2-2.9-4.1-5.8
		c0.1-2.6,2-4.9,4.8-5.5c3.2-0.7,6.2-0.1,8.9,1.7c0.9,0.6,0.9,0.6,0.3,1.5c-0.1,0.1-0.1,0.2-0.2,0.3c-1.1,1.7-1.1,1.7-2.8,0.7
		c-1.3-0.7-2.7-1.2-4.3-1.1c-0.7,0-1.4,0.2-2,0.6c-1.4,1-1.4,2.8,0,3.7c0.7,0.4,1.4,0.7,2.2,0.9c1.6,0.4,3.2,0.8,4.7,1.5
		c2.8,1.2,4,3.3,3.3,6.6c-0.4,1.9-1.6,3.2-3.4,4C722.1,127.2,716.1,125.6,713.8,122.8z"/>
	<path class="st1" d="M272.6,120.2c0.8,0.8,1.6,1.6,2.3,2.4c-3.4,4.4-10.9,5-15.3,1.1c-4.5-3.9-4.7-11.4-0.5-15.7
		c4.3-4.5,12.4-3.9,15.8,0.2c-0.7,0.9-1.5,1.7-2.2,2.6c-4.7-3.3-8.2-3.3-10.9-0.1c-2.4,2.8-2.3,7.5,0.3,10.1
		C264.7,123.6,268.5,123.5,272.6,120.2z"/>
	<path class="st1" d="M244.9,108.1c-0.2,0.2-0.3,0.5-0.5,0.7c-0.6,0.6-1,1.6-1.8,1.8c-0.7,0.2-1.3-0.8-2-1.2
		c-2.6-1.5-5.2-1.6-7.7,0.1c-2.6,1.8-3.3,4.5-2.8,7.5c1,5.3,6.6,7.5,11,4.3c0.5-0.3,0.9-0.7,1.5-1.2c0.6,0.6,1.1,1.2,1.8,1.8
		c0.6,0.5,0.4,0.9-0.1,1.3c-2.6,2.5-5.8,3.4-9.3,2.9c-5-0.6-8.6-4.7-9-9.7c-0.3-5.4,2.6-9.9,7.6-11.2c3.8-1,7.3-0.4,10.4,2.1
		C244.4,107.6,244.6,107.8,244.9,108.1z"/>
	<path class="st1" d="M436.4,117.3c0-2.5,0-5,0-7.5c0-0.8-0.3-1.1-1.1-1.1c-1.5,0-3,0-4.5,0c-0.6,0-1-0.1-1-0.9
		c0.1-3.2-0.4-2.6,2.5-2.6c4.4,0,8.8,0,13.2,0c1.2,0,1.2,0,1.2,1.2c0,2.7,0.4,2.1-2.2,2.2c-1,0-2,0-3,0c-1.3,0-1.3,0-1.3,1.3
		c0,2.5,0,4.9,0,7.4c0,2.5,0,5,0,7.5c0,0.8-0.3,1.1-1.1,1.1c-3.2-0.1-2.6,0.4-2.6-2.6C436.4,121.3,436.4,119.3,436.4,117.3z"/>
	<path class="st1" d="M319.8,113.9c0,2.5,0,4.9,0,7.4c0,1.2,0,1.2,1.3,1.2c2.7,0,5.5,0,8.2,0c1.4,0,1.4,0,1.4,1.4c0,2.3,0.3,2-1.9,2
		c-3.7,0-7.5,0-11.2,0c-1.3,0-1.3,0-1.3-1.3c0-6,0-12.1,0-18.1c0-1.2,0-1.3,1.2-1.3c2.9,0,2.3-0.4,2.4,2.3
		C319.8,109.7,319.8,111.8,319.8,113.9z"/>
	<path class="st1" d="M671.1,20.1c0,4.3,0,8.4,0,12.5c0,0.8-0.3,1-1,1c-3.5,0-7.1,0-10.6,0c-0.8,0-1-0.3-1-1
		c-0.1-3.4-0.1-3.4,2.7-5.5c2.8-2.1,5.7-4.2,8.5-6.3C670.1,20.5,670.5,20.2,671.1,20.1z"/>
	<path class="st1" d="M459.4,115.6c0-3,0-6,0-9c0-1.3,0-1.4,1.3-1.4c3,0,2.5-0.3,2.5,2.4c0,5.6,0,11.1,0,16.7c0,1.7,0.1,1.6-1.5,1.6
		c-2.6,0-2.2,0.3-2.2-2.2C459.4,121,459.4,118.3,459.4,115.6z"/>
</g>
</svg>
